<!--
<svg xmlns="http://www.w3.org/2000/svg" xmlns:xlink="http://www.w3.org/1999/xlink" viewBox="0 0 345.7 72.3">
  <defs>
    <style>
      .a {
        fill: #999;
      }

      .b {
        fill: #4f79f7;
      }
    </style>
    <symbol id="a" data-name="logo no shdw" viewBox="0 0 345.7 72.3">
      <path class="a" d="M29.2,1.7c8.5,0,13.1,4.6,13.1,13.1V41.5c0,8.5-4.6,13.1-13.1,13.1H13.1C4.6,54.6,0,50,0,41.5V14.8C0,6.3,4.6,1.7,13.1,1.7Zm4.1,13.2c0-3.3-1.7-5.3-5.3-5.3H14.2c-3.3,0-5.3,1.9-5.3,5.3V41.4c0,3.4,2,5.3,5.3,5.3H28c3.5,0,5.3-1.9,5.3-5.3Z"/>
      <path class="a" d="M76.7,1.7c8.6,0,13.2,4.6,13.2,13.1V41.5c0,8.5-4.6,13.1-13.2,13.1H71.5c-6.4,0-11-3.8-15.3-7.8V72.3H47.3V1.7h8.9V9.5c4.3-4,8.9-7.8,15.3-7.8Zm4.1,13.2c0-3.3-1.7-5.3-5.3-5.3H70.7c-5.3,0-9.8,2.1-14.5,5.3V41.4c4.7,3.2,9.2,5.3,14.5,5.3h4.8c3.6,0,5.3-2,5.3-5.3Z"/>
      <path class="a" d="M103.9,41.8c0,3.4,1.8,5.3,5.3,5.3h13.2c3.4,0,5.3-2,5.3-5.3V37.9h9v3.6c0,8.5-4.6,13.1-13.1,13.1H108c-8.5,0-13.1-4.6-13.1-13.1V14.8c0-8.5,4.6-13.1,13.1-13.1h15.6c8.5,0,13.1,4.6,13.1,13.1V30.3H103.9Zm5.3-32.5c-3.5,0-5.3,1.8-5.3,5.2v9.2h23.8V14.5c0-3.4-1.8-5.2-5.3-5.2Z"/>
      <path class="a" d="M141.6,1.7h8.9V9.5c4.2-4,8.8-7.8,15.3-7.8h4.1c8.6,0,13.2,4.6,13.2,13.1V54.6h-9V15.1c0-3.4-1.8-5.3-5.2-5.3H165c-5.4,0-9.8,2-14.5,5.3V54.6h-8.9Z"/>
      <path class="b" d="M262.4,54.6c-7.2,0-10.6-3.4-10.6-10.6V10.6c0-7.1,3.6-10.6,10.8-10.6h24.3c7.2,0,10.4,3.5,10.4,10.6V20.9H282.7V13.6c0-1.1-.3-1.4-1.4-1.4H267.9c-1.1,0-1.4.3-1.4,1.4V41.1c0,1,.3,1.4,1.4,1.4h13.4c1.1,0,1.4-.4,1.4-1.4V33.8h14.6V44c0,7.2-3.4,10.6-10.6,10.6Z"/>
      <path class="b" d="M330.6,12.5V54.6H315.9V12.5H300.8V0h44.9V12.5Z"/>
      <path class="b" d="M222,48l10.1-24.5v28a3.1,3.1,0,0,0,3.1,3.2h10.9V3.1A3.1,3.1,0,0,0,243,0H229.6L217.4,28.5,205.2,0H191.8a3.1,3.1,0,0,0-3.1,3.1V54.7h11a3.1,3.1,0,0,0,3.1-3.2v-28l10,24.5Z"/>
    </symbol>
  </defs>
  <title>logo-app</title>
  <use width="345.7" height="72.27" xlink:href="#a"/>
</svg>
-->

<svg version="1.1" id="Layer_1" xmlns="http://www.w3.org/2000/svg" xmlns:xlink="http://www.w3.org/1999/xlink" x="0px" y="0px"
	 viewBox="0 0 561.38 48.15" style="enable-background:new 0 0 561.38 48.15;" xml:space="preserve">
<style type="text/css">
	.st0{fill:#9A9999;}
	.st1{fill:#5370B5;}
	.st2{fill:#FFFFFF;}
</style>
<symbol  id="a" viewBox="-172.78 -36.13 345.56 72.27">
	<path class="st0" d="M-143.59-34.44c8.5,0,13.09,4.6,13.09,13.09V5.35c0,8.5-4.6,13.09-13.09,13.09h-16.09
		c-8.5,0-13.09-4.6-13.09-13.09v-26.69c0-8.5,4.6-13.09,13.09-13.09H-143.59z M-139.49-21.24c0-3.3-1.7-5.3-5.3-5.3h-13.79
		c-3.3,0-5.3,1.9-5.3,5.3V5.25c0,3.4,2,5.3,5.3,5.3h13.79c3.5,0,5.3-1.9,5.3-5.3V-21.24z"/>
	<path class="st0" d="M-96.11-34.44c8.6,0,13.19,4.6,13.19,13.09V5.35c0,8.5-4.6,13.09-13.19,13.09h-5.2c-6.4,0-11-3.8-15.29-7.8
		v25.49h-8.9v-70.57h8.9v7.8c4.3-4,8.9-7.8,15.29-7.8H-96.11z M-92.01-21.24c0-3.3-1.7-5.3-5.3-5.3h-4.8c-5.3,0-9.8,2.1-14.49,5.3
		V5.25c4.7,3.2,9.2,5.3,14.49,5.3h4.8c3.6,0,5.3-2,5.3-5.3L-92.01-21.24z"/>
	<path class="st0" d="M-68.92,5.65c0,3.4,1.8,5.3,5.3,5.3h13.19c3.4,0,5.3-2,5.3-5.3v-3.9h9v3.6c0,8.5-4.6,13.09-13.09,13.09h-15.59
		c-8.5,0-13.09-4.6-13.09-13.09v-26.69c0-8.5,4.6-13.09,13.09-13.09h15.59c8.5,0,13.09,4.6,13.09,13.09v15.49h-32.79V5.65z
		 M-63.62-26.84c-3.5,0-5.3,1.8-5.3,5.2v9.2h23.79v-9.2c0-3.4-1.8-5.2-5.3-5.2L-63.62-26.84z"/>
	<path class="st0" d="M-31.24-34.44h8.9v7.8c4.2-4,8.8-7.8,15.29-7.8h4.1c8.6,0,13.19,4.6,13.19,13.09v39.78h-9v-39.48
		c0-3.4-1.8-5.3-5.2-5.3h-3.9c-5.4,0-9.8,2-14.49,5.3v39.48h-8.9V-34.44z"/>
	<path class="st1" d="M89.51,18.44c-7.2,0-10.6-3.4-10.6-10.6v-33.39c0-7.1,3.6-10.6,10.8-10.6H114c7.2,0,10.4,3.5,10.4,10.6v10.3
		H109.8v-7.3c0-1.1-0.3-1.4-1.4-1.4H95.01c-1.1,0-1.4,0.3-1.4,1.4V4.95c0,1,0.3,1.4,1.4,1.4h13.39c1.1,0,1.4-0.4,1.4-1.4v-7.3h14.59
		v10.2c0,7.2-3.4,10.6-10.6,10.6H89.51z"/>
	<path class="st1" d="M157.68-23.64v42.08h-14.69v-42.08H127.9v-12.49h44.88v12.49H157.68z"/>
	<path class="st1" d="M49.13,11.85l10.1-24.49v27.99c-0.06,1.71,1.29,3.14,3,3.2c0.03,0,0.07,0,0.1,0h10.9v-51.58
		c0-1.71-1.39-3.1-3.1-3.1c0,0,0,0,0,0H56.73L44.53-7.65L32.34-36.13H18.94c-1.71,0-3.1,1.39-3.1,3.1c0,0,0,0,0,0v51.58h11
		c1.71,0,3.1-1.39,3.1-3.1c0-0.03,0-0.07,0-0.1v-27.99l10,24.49H49.13z"/>
</symbol>
<g>
	
		<use xlink:href="#a"  width="345.56" height="72.27" x="-172.78" y="-36.13" transform="matrix(0.6198 0 0 0.6198 452.9753 24.3969)" style="overflow:visible;"/>
	<path class="st2" d="M116.59,24.42h17.5l-9.25-14.93l-17,26.97h-7.73l20.67-32.35c1.56-2.23,4.63-2.78,6.86-1.22
		c0.46,0.32,0.85,0.71,1.18,1.16l20.73,32.41h-7.73l-3.64-6.03h-17.71l-3.86-6.01 M196.94,30.43V2.33h-6.57V33.2
		c0,0.87,0.35,1.7,0.98,2.3c0.63,0.64,1.49,1,2.39,1h29.86l3.89-6.03H196.9 M88.32,25.41c6.37,0,11.54-5.17,11.54-11.54
		S94.7,2.33,88.32,2.33H59.61v34.13h6.56V8.37h21.75c3.05,0,5.52,2.47,5.52,5.52s-2.47,5.52-5.52,5.52h-18.5l19.59,17.04h9.52
		L85.37,25.41H88.32 M19.27,36.46h19.84c9.42-0.24,16.86-8.08,16.62-17.5C55.49,9.88,48.19,2.57,39.11,2.34H19.27
		C9.85,2.09,2.01,9.53,1.77,18.96s7.2,17.26,16.62,17.5C18.68,36.47,18.98,36.47,19.27,36.46 M38.66,30.45H19.71
		c-6.1-0.2-10.88-5.3-10.69-11.4c0.19-5.82,4.86-10.5,10.69-10.69h18.95c6.1-0.2,11.2,4.59,11.4,10.69c0.2,6.1-4.59,11.2-10.69,11.4
		C39.14,30.46,38.9,30.46,38.66,30.45 M163.26,36.46h20.25l3.84-6.01h-23.64c-6.1,0.2-11.2-4.59-11.4-10.69
		c-0.2-6.1,4.59-11.2,10.69-11.4c0.24-0.01,0.47-0.01,0.71,0h19.24l3.88-6.03h-23.57c-9.42-0.24-17.26,7.2-17.5,16.62
		s7.2,17.26,16.62,17.5C162.67,36.47,162.97,36.47,163.26,36.46 M243.51,30.45c-4.94,0-9.29-3.28-10.64-8.04h28.05l3.86-6.02h-31.91
		c1.34-4.76,5.69-8.05,10.64-8.04h19.25l3.85-6.03h-23.54c-9.42,0.24-16.86,8.08-16.62,17.5c0.24,9.08,7.54,16.38,16.62,16.62h20.25
		l3.85-6.01H243.5"/>
	<g>
		<path class="st2" d="M308.27,5.94v11.34h10.9v2.89h-10.9v11.43h-3.09V20.17h-10.9v-2.89h10.9V5.94H308.27z"/>
	</g>
</g>
</svg>